Coordinates
version=1
nRows=16
nColumns=40
inDegrees=yes

Units are S.I. units (second, meters, Newtons, ...)
If the header above contains a line with 'inDegrees', this indicates whether rotational values are in degrees (yes) or radians (no).

endheader
time	pelvis_tilt	pelvis_list	pelvis_rotation	pelvis_tx	pelvis_ty	pelvis_tz	hip_flexion_r	hip_adduction_r	hip_rotation_r	knee_angle_r	knee_angle_r_beta	ankle_angle_r	subtalar_angle_r	mtp_angle_r	hip_flexion_l	hip_adduction_l	hip_rotation_l	knee_angle_l	knee_angle_l_beta	ankle_angle_l	subtalar_angle_l	mtp_angle_l	lumbar_extension	lumbar_bending	lumbar_rotation	arm_flex_r	arm_add_r	arm_rot_r	elbow_flex_r	pro_sup_r	wrist_flex_r	wrist_dev_r	arm_flex_l	arm_add_l	arm_rot_l	elbow_flex_l	pro_sup_l	wrist_flex_l	wrist_dev_l
      0.00000000	     -5.69616521	      0.98852559	     -0.63120960	      1.27274809	      0.90584456	     -0.51663190	     -9.39579165	      1.59747460	      3.58108792	     17.02117046	      0.29707547	    -10.02632218	      6.73026511	      0.00000000	     33.89805380	      1.09118500	      0.12084627	     14.02649285	      0.24480848	      4.84144990	      9.08906517	      0.00000000	     -7.22474279	     -3.36311955	     22.18713494	      0.00000000	    -10.97670862	      0.00000000	     75.50454896	     44.86703503	      0.00000000	      0.00000000	      0.00000000	    -10.97670862	      0.00000000	     75.50454896	     44.86703503	      0.00000000	      0.00000000
      0.01000000	     -5.65737495	      1.29339866	     -0.26802450	      1.27450808	      0.90920679	     -0.51738813	    -11.12691149	      1.05810555	      2.86662268	     15.92948441	      0.27802195	    -15.01144748	      7.91583294	      0.00000000	     33.55033296	      1.79497511	     -0.31408756	     10.53070823	      0.18379553	      6.16518276	     10.87388075	      0.00000000	     -7.00606390	     -4.04796032	     22.67457686	      0.00000000	    -10.98783276	      0.00000000	     75.50182374	     44.86902000	      0.00000000	      0.00000000	      0.00000000	    -10.98783276	      0.00000000	     75.50182374	     44.86902000	      0.00000000	      0.00000000
      0.02000000	     -5.63385201	      1.43140170	     -0.10574026	      1.27590577	      0.91211710	     -0.51780152	    -12.17470654	      0.77589296	      2.66774705	     15.97988365	      0.27890158	    -19.30879371	      8.15741394	      0.00000000	     33.37959652	      2.19563562	     -0.84644715	      8.49628710	      0.14828818	      7.37002274	     12.27750241	      0.00000000	     -6.84105491	     -4.56598573	     23.14485306	      0.00000000	    -11.00751000	      0.00000000	     75.49702036	     44.87247288	      0.00000000	      0.00000000	      0.00000000	    -11.00751000	      0.00000000	     75.49702036	     44.87247288	      0.00000000	      0.00000000
      0.03000000	     -5.56170268	      1.40225945	      0.12347896	      1.27695763	      0.91429936	     -0.51868103	    -12.55573382	      0.68214344	      2.62263020	     17.44225740	      0.30442482	    -22.21513615	      8.27874839	      0.00000000	     33.24314608	      2.55911101	     -0.67751099	      7.64994895	      0.13351680	      8.15232087	     12.32478599	      0.00000000	     -6.76268129	     -4.76025466	     23.42098452	      0.00000000	    -11.01826778	      0.00000000	     75.49440379	     44.87432931	      0.00000000	      0.00000000	      0.00000000	    -11.01826778	      0.00000000	     75.49440379	     44.87432931	      0.00000000	      0.00000000
      0.04000000	     -5.39603867	      1.18476143	      0.17882441	      1.27790206	      0.91581722	     -0.51927060	    -12.43825658	      0.85444057	      3.03720461	     19.82979406	      0.34609520	    -24.62684922	      8.16693709	      0.00000000	     33.04387409	      2.64289546	     -0.52422620	      7.91909316	      0.13821425	      8.35221050	     11.75752517	      0.00000000	     -6.77142149	     -4.76259610	     23.62434059	      0.00000000	    -11.02541112	      0.00000000	     75.49267031	     44.87554939	      0.00000000	      0.00000000	      0.00000000	    -11.02541112	      0.00000000	     75.49267031	     44.87554939	      0.00000000	      0.00000000
      0.05000000	     -5.10328548	      0.90217083	      0.12923185	      1.27854925	      0.91654033	     -0.51967731	    -11.99532728	      1.17228759	      3.81057610	     22.89874301	      0.39965846	    -26.33712431	      7.52780265	      0.00000000	     32.72591794	      2.60353951	     -0.28220905	      9.25043050	      0.16145047	      8.28012874	     10.99207572	      0.00000000	     -6.97451662	     -4.65444405	     23.64764306	      0.00000000	    -11.03096397	      0.00000000	     75.49132514	     44.87649054	      0.00000000	      0.00000000	      0.00000000	    -11.03096397	      0.00000000	     75.49132514	     44.87649054	      0.00000000	      0.00000000
      0.06000000	     -5.06644415	      0.49321222	      0.15616496	      1.27881863	      0.91615275	     -0.52004593	    -10.83865092	      1.76137559	      4.80202774	     26.77441693	      0.46730173	    -27.41968920	      5.04767716	      0.00000000	     32.69534280	      2.50027224	      0.39703142	     11.49206229	      0.20057432	      8.05968801	      9.85179565	      0.00000000	     -6.91086333	     -4.36108422	     23.21962395	      0.00000000	    -11.04452692	      0.00000000	     75.48804634	     44.87876610	      0.00000000	      0.00000000	      0.00000000	    -11.04452692	      0.00000000	     75.48804634	     44.87876610	      0.00000000	      0.00000000
      0.07000000	     -4.51675197	      0.20671581	      0.29046801	      1.27920669	      0.91556324	     -0.52044223	     -9.89896990	      2.13905792	      4.88286490	     31.09229464	      0.54266291	    -26.52425498	      3.00011111	      0.00000000	     31.81429038	      2.50049543	      0.58809760	     13.90179135	      0.24263203	      8.05790034	      9.25462630	      0.00000000	     -7.43406329	     -4.18395859	     22.57961207	      0.00000000	    -11.05160049	      0.00000000	     75.48634071	     44.87993913	      0.00000000	      0.00000000	      0.00000000	    -11.05160049	      0.00000000	     75.48634071	     44.87993913	      0.00000000	      0.00000000
      0.08000000	     -4.14483884	     -0.19581432	      0.42107709	      1.27924850	      0.91386448	     -0.52090135	     -8.44551433	      2.70713595	      4.94656278	     35.72438948	      0.62350822	    -24.34388690	      0.38952220	      0.00000000	     30.89345905	      2.40063823	      1.22155285	     16.43863956	      0.28690838	      7.83841542	      8.94680986	      0.00000000	     -7.82291069	     -3.84099787	     21.78871631	      0.00000000	    -11.06305067	      0.00000000	     75.48358565	     44.88181871	      0.00000000	      0.00000000	      0.00000000	    -11.06305067	      0.00000000	     75.48358565	     44.88181871	      0.00000000	      0.00000000
      0.09000000	     -3.44193141	     -0.57190915	      0.71102945	      1.27931702	      0.91159736	     -0.52145917	     -7.09857302	      3.09152453	      4.30299522	     40.33161539	      0.70391948	    -21.73232256	     -1.63396722	      0.00000000	     29.35157775	      2.28829353	      1.62999576	     18.77245354	      0.32764112	      7.81851358	      8.85053792	      0.00000000	     -8.58259937	     -3.54252490	     20.70846821	      0.00000000	    -11.07591902	      0.00000000	     75.48049848	     44.88390227	      0.00000000	      0.00000000	      0.00000000	    -11.07591902	      0.00000000	     75.48049848	     44.88390227	      0.00000000	      0.00000000
      0.10000000	     -2.49258474	     -0.85934682	      1.16853834	      1.27917713	      0.90889350	     -0.52233618	     -5.93601780	      3.24673364	      3.22535472	     44.69556659	      0.78008480	    -19.09329575	     -3.62119587	      0.00000000	     27.37918583	      2.22701250	      1.84311135	     20.60402085	      0.35960800	      7.02076283	      9.32218106	      0.00000000	     -9.68606318	     -3.32268202	     19.40149086	      0.00000000	    -11.08340049	      0.00000000	     75.47870978	     44.88509615	      0.00000000	      0.00000000	      0.00000000	    -11.08340049	      0.00000000	     75.47870978	     44.88509615	      0.00000000	      0.00000000
      0.11000000	     -1.58655462	     -1.16034154	      1.60426314	      1.27870272	      0.90527074	     -0.52301590	     -4.47796823	      3.34490350	      2.06051827	     49.05003761	      0.85608465	    -16.64433690	     -5.44283790	      0.00000000	     25.25987247	      1.97479359	      1.59733167	     21.30789524	      0.37189293	      6.01599771	     10.18071770	      0.00000000	    -10.79666271	     -3.08238481	     18.13620654	      0.00000000	    -11.09146216	      0.00000000	     75.47678594	     44.88637153	      0.00000000	      0.00000000	      0.00000000	    -11.09146216	      0.00000000	     75.47678594	     44.88637153	      0.00000000	      0.00000000
      0.12000000	     -0.66740089	     -1.48924283	      2.13582057	      1.27765083	      0.90088610	     -0.52372945	     -2.86954159	      3.35764882	      0.71245661	     53.17202403	      0.92802689	    -14.80500568	     -6.96675063	      0.00000000	     23.12275977	      1.54881794	      1.08200287	     21.43795758	      0.37416294	      3.09089598	     11.31725798	      0.00000000	    -12.02038739	     -2.79240462	     16.64620067	      0.00000000	    -11.09836148	      0.00000000	     75.47514239	     44.88745412	      0.00000000	      0.00000000	      0.00000000	    -11.09836148	      0.00000000	     75.47514239	     44.88745412	      0.00000000	      0.00000000
      0.13000000	      0.32405858	     -1.25060168	      2.73940726	      1.27526366	      0.89672376	     -0.52468520	     -1.05290015	      2.59855327	     -0.80217168	     57.18597910	      0.99808362	    -13.66565599	     -8.26825719	      0.00000000	     21.23623086	      1.81301153	      0.44263457	     22.67758802	      0.39579858	      4.97138950	     10.80042596	      0.00000000	    -13.59389484	     -3.08800332	     14.85227561	      0.00000000	    -11.10425464	      0.00000000	     75.47374137	     44.88837081	      0.00000000	      0.00000000	      0.00000000	    -11.10425464	      0.00000000	     75.47374137	     44.88837081	      0.00000000	      0.00000000
      0.14000000	      0.93174455	     -0.59538432	      3.49795623	      1.27155984	      0.89215980	     -0.52547722	      1.45116183	      1.31700547	     -2.30318898	     61.24883946	      1.06899391	    -12.14172852	     -9.74903212	      0.00000000	     20.99710098	      2.57199502	      0.43070493	     27.03226036	      0.47180195	      8.13796757	     10.69892583	      0.00000000	    -14.99830972	     -3.86674597	     12.51928099	      0.00000000	    -11.11563020	      0.00000000	     75.47104127	     44.89012590	      0.00000000	      0.00000000	      0.00000000	    -11.11563020	      0.00000000	     75.47104127	     44.89012590	      0.00000000	      0.00000000
      0.15000000	      1.78474342	      0.05650846	      4.16506148	      1.26834970	      0.88788893	     -0.52628620	      3.64330371	      0.00112832	     -3.47467108	     64.74943214	      1.13009078	    -11.16578241	    -10.96402590	      0.00000000	     20.98238086	      3.16017448	      0.58032684	     32.19217180	      0.56185939	     10.48078063	     10.51667923	      0.00000000	    -16.64777222	     -4.53191374	     10.25498013	      0.00000000	    -11.12625388	      0.00000000	     75.46852692	     44.89174366	      0.00000000	      0.00000000	      0.00000000	    -11.12625388	      0.00000000	     75.46852692	     44.89174366	      0.00000000	      0.00000000
